<mxfile>
    <diagram id="ZhPqUHkkQm5amyJdqBYF" name="1 step">
        <mxGraphModel dx="1374" dy="790" grid="1" gridSize="10" guides="1" tooltips="1" connect="1" arrows="1" fold="1" page="1" pageScale="1" pageWidth="850" pageHeight="1100" math="0" shadow="0">
            <root>
                <mxCell id="0"/>
                <mxCell id="1" parent="0"/>
                <mxCell id="DNbNiWpVHuDMsNYNoQ88-7" style="edgeStyle=orthogonalEdgeStyle;rounded=0;orthogonalLoop=1;jettySize=auto;html=1;entryX=0;entryY=0.75;entryDx=0;entryDy=0;" parent="1" source="2" target="DNbNiWpVHuDMsNYNoQ88-8" edge="1">
                    <mxGeometry relative="1" as="geometry">
                        <mxPoint x="300" y="520" as="targetPoint"/>
                        <Array as="points">
                            <mxPoint x="290" y="710"/>
                            <mxPoint x="290" y="735"/>
                        </Array>
                    </mxGeometry>
                </mxCell>
                <mxCell id="2" value="usuario" style="rounded=1;whiteSpace=wrap;html=1;" parent="1" vertex="1">
                    <mxGeometry x="10" y="700" width="120" height="60" as="geometry"/>
                </mxCell>
                <mxCell id="DNbNiWpVHuDMsNYNoQ88-3" style="edgeStyle=orthogonalEdgeStyle;rounded=0;orthogonalLoop=1;jettySize=auto;html=1;entryX=0;entryY=0.75;entryDx=0;entryDy=0;" parent="1" source="3" target="DNbNiWpVHuDMsNYNoQ88-4" edge="1">
                    <mxGeometry relative="1" as="geometry">
                        <mxPoint x="240" y="130" as="targetPoint"/>
                        <Array as="points">
                            <mxPoint x="80" y="85"/>
                        </Array>
                    </mxGeometry>
                </mxCell>
                <mxCell id="4" style="edgeStyle=orthogonalEdgeStyle;rounded=0;orthogonalLoop=1;jettySize=auto;html=1;" parent="1" source="3" target="5" edge="1">
                    <mxGeometry relative="1" as="geometry">
                        <mxPoint x="270" y="400" as="targetPoint"/>
                        <Array as="points">
                            <mxPoint x="70" y="560"/>
                        </Array>
                    </mxGeometry>
                </mxCell>
                <mxCell id="k5uNETjz4OpKzU7srh32-5" style="edgeStyle=orthogonalEdgeStyle;rounded=0;orthogonalLoop=1;jettySize=auto;html=1;" parent="1" source="3" target="k5uNETjz4OpKzU7srh32-6" edge="1">
                    <mxGeometry relative="1" as="geometry">
                        <mxPoint x="270" y="280" as="targetPoint"/>
                        <Array as="points">
                            <mxPoint x="150" y="280"/>
                            <mxPoint x="150" y="165"/>
                        </Array>
                    </mxGeometry>
                </mxCell>
                <mxCell id="k5uNETjz4OpKzU7srh32-9" style="edgeStyle=orthogonalEdgeStyle;rounded=0;orthogonalLoop=1;jettySize=auto;html=1;entryX=0;entryY=0.75;entryDx=0;entryDy=0;" parent="1" source="3" target="k5uNETjz4OpKzU7srh32-8" edge="1">
                    <mxGeometry relative="1" as="geometry">
                        <Array as="points">
                            <mxPoint x="100" y="455"/>
                        </Array>
                    </mxGeometry>
                </mxCell>
                <mxCell id="3" value="administrador" style="rounded=1;whiteSpace=wrap;html=1;" parent="1" vertex="1">
                    <mxGeometry x="10" y="250" width="120" height="60" as="geometry"/>
                </mxCell>
                <mxCell id="DNbNiWpVHuDMsNYNoQ88-5" style="edgeStyle=orthogonalEdgeStyle;rounded=0;orthogonalLoop=1;jettySize=auto;html=1;" parent="1" source="DNbNiWpVHuDMsNYNoQ88-4" target="DNbNiWpVHuDMsNYNoQ88-6" edge="1">
                    <mxGeometry relative="1" as="geometry">
                        <mxPoint x="380" y="240" as="targetPoint"/>
                        <Array as="points">
                            <mxPoint x="580" y="80"/>
                            <mxPoint x="580" y="90"/>
                            <mxPoint x="585" y="90"/>
                        </Array>
                    </mxGeometry>
                </mxCell>
                <mxCell id="DNbNiWpVHuDMsNYNoQ88-4" value="Crear clase" style="rounded=1;whiteSpace=wrap;html=1;" parent="1" vertex="1">
                    <mxGeometry x="220" y="40" width="120" height="60" as="geometry"/>
                </mxCell>
                <mxCell id="DNbNiWpVHuDMsNYNoQ88-6" value="1. nombre de la clase&lt;br&gt;2. dias en que se realiza la clase&lt;br&gt;3. el coach que va ha dar esa clase&lt;br&gt;4. descripción de la clase&lt;br&gt;5. horas en que se realiza la clase" style="rounded=0;whiteSpace=wrap;html=1;" parent="1" vertex="1">
                    <mxGeometry x="500" y="120" width="230" height="90" as="geometry"/>
                </mxCell>
                <mxCell id="DNbNiWpVHuDMsNYNoQ88-9" style="edgeStyle=orthogonalEdgeStyle;rounded=0;orthogonalLoop=1;jettySize=auto;html=1;" parent="1" source="DNbNiWpVHuDMsNYNoQ88-8" target="DNbNiWpVHuDMsNYNoQ88-10" edge="1">
                    <mxGeometry relative="1" as="geometry">
                        <mxPoint x="340" y="650" as="targetPoint"/>
                    </mxGeometry>
                </mxCell>
                <mxCell id="DNbNiWpVHuDMsNYNoQ88-12" style="edgeStyle=orthogonalEdgeStyle;rounded=0;orthogonalLoop=1;jettySize=auto;html=1;entryX=0;entryY=0.5;entryDx=0;entryDy=0;" parent="1" source="DNbNiWpVHuDMsNYNoQ88-8" target="DNbNiWpVHuDMsNYNoQ88-11" edge="1">
                    <mxGeometry relative="1" as="geometry"/>
                </mxCell>
                <mxCell id="DNbNiWpVHuDMsNYNoQ88-8" value="ver la clases" style="rounded=1;whiteSpace=wrap;html=1;" parent="1" vertex="1">
                    <mxGeometry x="250" y="690" width="120" height="60" as="geometry"/>
                </mxCell>
                <mxCell id="DNbNiWpVHuDMsNYNoQ88-10" value="me anoto a una clase" style="rounded=1;whiteSpace=wrap;html=1;" parent="1" vertex="1">
                    <mxGeometry x="240" y="870" width="140" height="60" as="geometry"/>
                </mxCell>
                <mxCell id="DNbNiWpVHuDMsNYNoQ88-11" value="&lt;span&gt;1. Nombre de la clase&lt;/span&gt;&lt;br&gt;&lt;span&gt;2. Dias en que se realiza la clase&lt;/span&gt;&lt;br&gt;&lt;span&gt;3. El coach que va ha dar esa clase&lt;/span&gt;&lt;br&gt;&lt;span&gt;4. Descripción de la clase&lt;/span&gt;&lt;br&gt;&lt;span&gt;5. horas en que se realiza la clase&lt;/span&gt;" style="rounded=0;whiteSpace=wrap;html=1;" parent="1" vertex="1">
                    <mxGeometry x="470" y="710" width="270" height="130" as="geometry"/>
                </mxCell>
                <mxCell id="5" value="Registrar manualmente una clase" style="rounded=1;whiteSpace=wrap;html=1;" parent="1" vertex="1">
                    <mxGeometry x="230" y="530" width="120" height="60" as="geometry"/>
                </mxCell>
                <mxCell id="k5uNETjz4OpKzU7srh32-6" value="ver las clases" style="rounded=1;whiteSpace=wrap;html=1;" parent="1" vertex="1">
                    <mxGeometry x="190" y="135" width="120" height="60" as="geometry"/>
                </mxCell>
                <mxCell id="k5uNETjz4OpKzU7srh32-8" value="usuarios que asisitiran a&amp;nbsp; un clase" style="rounded=1;whiteSpace=wrap;html=1;" parent="1" vertex="1">
                    <mxGeometry x="200" y="420" width="120" height="60" as="geometry"/>
                </mxCell>
            </root>
        </mxGraphModel>
    </diagram>
    <diagram id="G63ohJgsXTaoEdBiXxNn" name="flujo de plan">
        <mxGraphModel dx="2224" dy="790" grid="1" gridSize="10" guides="1" tooltips="1" connect="1" arrows="1" fold="1" page="1" pageScale="1" pageWidth="850" pageHeight="1100" math="0" shadow="0">
            <root>
                <mxCell id="q1WYj53OjF91P0hFCe3i-0"/>
                <mxCell id="q1WYj53OjF91P0hFCe3i-1" parent="q1WYj53OjF91P0hFCe3i-0"/>
                <mxCell id="q1WYj53OjF91P0hFCe3i-6" style="edgeStyle=orthogonalEdgeStyle;rounded=0;orthogonalLoop=1;jettySize=auto;html=1;" parent="q1WYj53OjF91P0hFCe3i-1" source="q1WYj53OjF91P0hFCe3i-3" target="q1WYj53OjF91P0hFCe3i-5" edge="1">
                    <mxGeometry relative="1" as="geometry"/>
                </mxCell>
                <mxCell id="q1WYj53OjF91P0hFCe3i-3" value="inicio" style="rounded=1;whiteSpace=wrap;html=1;" parent="q1WYj53OjF91P0hFCe3i-1" vertex="1">
                    <mxGeometry x="-10" y="260" width="120" height="60" as="geometry"/>
                </mxCell>
                <mxCell id="q1WYj53OjF91P0hFCe3i-7" style="edgeStyle=orthogonalEdgeStyle;rounded=0;orthogonalLoop=1;jettySize=auto;html=1;" parent="q1WYj53OjF91P0hFCe3i-1" source="q1WYj53OjF91P0hFCe3i-5" target="q1WYj53OjF91P0hFCe3i-8" edge="1">
                    <mxGeometry relative="1" as="geometry">
                        <mxPoint x="580" y="250" as="targetPoint"/>
                    </mxGeometry>
                </mxCell>
                <mxCell id="q1WYj53OjF91P0hFCe3i-5" value="1. Nombre&amp;nbsp;&lt;br&gt;2. Fecha de inicio&lt;br&gt;3. Fecha fin del plan" style="rounded=0;whiteSpace=wrap;html=1;" parent="q1WYj53OjF91P0hFCe3i-1" vertex="1">
                    <mxGeometry x="260" y="240" width="120" height="60" as="geometry"/>
                </mxCell>
                <mxCell id="q1WYj53OjF91P0hFCe3i-8" value="crear plan" style="rounded=1;whiteSpace=wrap;html=1;" parent="q1WYj53OjF91P0hFCe3i-1" vertex="1">
                    <mxGeometry x="550" y="170" width="120" height="60" as="geometry"/>
                </mxCell>
            </root>
        </mxGraphModel>
    </diagram>
    <diagram id="Z7_ZHcCQAkjzbc5f9iGo" name="Page-3">
        <mxGraphModel dx="1504" dy="376" grid="1" gridSize="10" guides="1" tooltips="1" connect="1" arrows="1" fold="1" page="1" pageScale="1" pageWidth="850" pageHeight="1100" math="0" shadow="0">
            <root>
                <mxCell id="n1L1VKnww10ALR_CTc3F-0"/>
                <mxCell id="n1L1VKnww10ALR_CTc3F-1" parent="n1L1VKnww10ALR_CTc3F-0"/>
                <mxCell id="n1L1VKnww10ALR_CTc3F-2" value="Clase" style="swimlane;fontStyle=1;align=center;verticalAlign=top;childLayout=stackLayout;horizontal=1;startSize=30;horizontalStack=0;resizeParent=1;resizeParentMax=0;resizeLast=0;collapsible=1;marginBottom=0;" parent="n1L1VKnww10ALR_CTc3F-1" vertex="1">
                    <mxGeometry x="-80" y="20" width="160" height="278" as="geometry"/>
                </mxCell>
                <mxCell id="n1L1VKnww10ALR_CTc3F-3" value="+ name: string" style="text;strokeColor=none;fillColor=none;align=left;verticalAlign=top;spacingLeft=4;spacingRight=4;overflow=hidden;rotatable=0;points=[[0,0.5],[1,0.5]];portConstraint=eastwest;" parent="n1L1VKnww10ALR_CTc3F-2" vertex="1">
                    <mxGeometry y="30" width="160" height="30" as="geometry"/>
                </mxCell>
                <mxCell id="n1L1VKnww10ALR_CTc3F-26" value="+ descripcion: string" style="text;strokeColor=none;fillColor=none;align=left;verticalAlign=top;spacingLeft=4;spacingRight=4;overflow=hidden;rotatable=0;points=[[0,0.5],[1,0.5]];portConstraint=eastwest;" parent="n1L1VKnww10ALR_CTc3F-2" vertex="1">
                    <mxGeometry y="60" width="160" height="30" as="geometry"/>
                </mxCell>
                <mxCell id="n1L1VKnww10ALR_CTc3F-27" value="+ coach: Usuario" style="text;strokeColor=none;fillColor=none;align=left;verticalAlign=top;spacingLeft=4;spacingRight=4;overflow=hidden;rotatable=0;points=[[0,0.5],[1,0.5]];portConstraint=eastwest;" parent="n1L1VKnww10ALR_CTc3F-2" vertex="1">
                    <mxGeometry y="90" width="160" height="30" as="geometry"/>
                </mxCell>
                <mxCell id="n1L1VKnww10ALR_CTc3F-28" value="+ dias: []&#10;" style="text;strokeColor=none;fillColor=none;align=left;verticalAlign=top;spacingLeft=4;spacingRight=4;overflow=hidden;rotatable=0;points=[[0,0.5],[1,0.5]];portConstraint=eastwest;" parent="n1L1VKnww10ALR_CTc3F-2" vertex="1">
                    <mxGeometry y="120" width="160" height="30" as="geometry"/>
                </mxCell>
                <mxCell id="n1L1VKnww10ALR_CTc3F-29" value="+ imagen" style="text;strokeColor=none;fillColor=none;align=left;verticalAlign=top;spacingLeft=4;spacingRight=4;overflow=hidden;rotatable=0;points=[[0,0.5],[1,0.5]];portConstraint=eastwest;" parent="n1L1VKnww10ALR_CTc3F-2" vertex="1">
                    <mxGeometry y="150" width="160" height="30" as="geometry"/>
                </mxCell>
                <mxCell id="n1L1VKnww10ALR_CTc3F-4" value="" style="line;strokeWidth=1;fillColor=none;align=left;verticalAlign=middle;spacingTop=-1;spacingLeft=3;spacingRight=3;rotatable=0;labelPosition=right;points=[];portConstraint=eastwest;" parent="n1L1VKnww10ALR_CTc3F-2" vertex="1">
                    <mxGeometry y="180" width="160" height="8" as="geometry"/>
                </mxCell>
                <mxCell id="n1L1VKnww10ALR_CTc3F-5" value="+ method(type): type" style="text;strokeColor=none;fillColor=none;align=left;verticalAlign=top;spacingLeft=4;spacingRight=4;overflow=hidden;rotatable=0;points=[[0,0.5],[1,0.5]];portConstraint=eastwest;" parent="n1L1VKnww10ALR_CTc3F-2" vertex="1">
                    <mxGeometry y="188" width="160" height="90" as="geometry"/>
                </mxCell>
                <mxCell id="n1L1VKnww10ALR_CTc3F-6" value="Plan" style="swimlane;fontStyle=1;align=center;verticalAlign=top;childLayout=stackLayout;horizontal=1;startSize=30;horizontalStack=0;resizeParent=1;resizeParentMax=0;resizeLast=0;collapsible=1;marginBottom=0;" parent="n1L1VKnww10ALR_CTc3F-1" vertex="1">
                    <mxGeometry x="460" y="10" width="160" height="236" as="geometry"/>
                </mxCell>
                <mxCell id="n1L1VKnww10ALR_CTc3F-7" value="+ name string" style="text;strokeColor=none;fillColor=none;align=left;verticalAlign=top;spacingLeft=4;spacingRight=4;overflow=hidden;rotatable=0;points=[[0,0.5],[1,0.5]];portConstraint=eastwest;" parent="n1L1VKnww10ALR_CTc3F-6" vertex="1">
                    <mxGeometry y="30" width="160" height="26" as="geometry"/>
                </mxCell>
                <mxCell id="n1L1VKnww10ALR_CTc3F-20" value="+ startPlan :Date" style="text;strokeColor=none;fillColor=none;align=left;verticalAlign=top;spacingLeft=4;spacingRight=4;overflow=hidden;rotatable=0;points=[[0,0.5],[1,0.5]];portConstraint=eastwest;" parent="n1L1VKnww10ALR_CTc3F-6" vertex="1">
                    <mxGeometry y="56" width="160" height="26" as="geometry"/>
                </mxCell>
                <mxCell id="n1L1VKnww10ALR_CTc3F-21" value="+ endPlan :Date" style="text;strokeColor=none;fillColor=none;align=left;verticalAlign=top;spacingLeft=4;spacingRight=4;overflow=hidden;rotatable=0;points=[[0,0.5],[1,0.5]];portConstraint=eastwest;" parent="n1L1VKnww10ALR_CTc3F-6" vertex="1">
                    <mxGeometry y="82" width="160" height="26" as="geometry"/>
                </mxCell>
                <mxCell id="n1L1VKnww10ALR_CTc3F-23" value="+ price :Date" style="text;strokeColor=none;fillColor=none;align=left;verticalAlign=top;spacingLeft=4;spacingRight=4;overflow=hidden;rotatable=0;points=[[0,0.5],[1,0.5]];portConstraint=eastwest;" parent="n1L1VKnww10ALR_CTc3F-6" vertex="1">
                    <mxGeometry y="108" width="160" height="26" as="geometry"/>
                </mxCell>
                <mxCell id="n1L1VKnww10ALR_CTc3F-24" value="+ descripcion :Date" style="text;strokeColor=none;fillColor=none;align=left;verticalAlign=top;spacingLeft=4;spacingRight=4;overflow=hidden;rotatable=0;points=[[0,0.5],[1,0.5]];portConstraint=eastwest;" parent="n1L1VKnww10ALR_CTc3F-6" vertex="1">
                    <mxGeometry y="134" width="160" height="26" as="geometry"/>
                </mxCell>
                <mxCell id="n1L1VKnww10ALR_CTc3F-30" value="+ Benefits:Json" style="text;strokeColor=none;fillColor=none;align=left;verticalAlign=top;spacingLeft=4;spacingRight=4;overflow=hidden;rotatable=0;points=[[0,0.5],[1,0.5]];portConstraint=eastwest;" parent="n1L1VKnww10ALR_CTc3F-6" vertex="1">
                    <mxGeometry y="160" width="160" height="26" as="geometry"/>
                </mxCell>
                <mxCell id="n1L1VKnww10ALR_CTc3F-8" value="" style="line;strokeWidth=1;fillColor=none;align=left;verticalAlign=middle;spacingTop=-1;spacingLeft=3;spacingRight=3;rotatable=0;labelPosition=right;points=[];portConstraint=eastwest;" parent="n1L1VKnww10ALR_CTc3F-6" vertex="1">
                    <mxGeometry y="186" width="160" height="8" as="geometry"/>
                </mxCell>
                <mxCell id="n1L1VKnww10ALR_CTc3F-25" value="+ method(type): type" style="text;strokeColor=none;fillColor=none;align=left;verticalAlign=top;spacingLeft=4;spacingRight=4;overflow=hidden;rotatable=0;points=[[0,0.5],[1,0.5]];portConstraint=eastwest;" parent="n1L1VKnww10ALR_CTc3F-6" vertex="1">
                    <mxGeometry y="194" width="160" height="42" as="geometry"/>
                </mxCell>
                <mxCell id="n1L1VKnww10ALR_CTc3F-14" style="edgeStyle=orthogonalEdgeStyle;rounded=0;orthogonalLoop=1;jettySize=auto;html=1;entryX=0.369;entryY=1.003;entryDx=0;entryDy=0;entryPerimeter=0;endArrow=ERmany;endFill=0;" parent="n1L1VKnww10ALR_CTc3F-1" source="n1L1VKnww10ALR_CTc3F-10" target="n1L1VKnww10ALR_CTc3F-25" edge="1">
                    <mxGeometry relative="1" as="geometry">
                        <Array as="points">
                            <mxPoint x="240" y="613"/>
                            <mxPoint x="519" y="613"/>
                        </Array>
                    </mxGeometry>
                </mxCell>
                <mxCell id="n1L1VKnww10ALR_CTc3F-18" value="tiene&amp;nbsp;" style="edgeLabel;html=1;align=center;verticalAlign=middle;resizable=0;points=[];" parent="n1L1VKnww10ALR_CTc3F-14" vertex="1" connectable="0">
                    <mxGeometry x="0.3682" relative="1" as="geometry">
                        <mxPoint as="offset"/>
                    </mxGeometry>
                </mxCell>
                <mxCell id="n1L1VKnww10ALR_CTc3F-16" style="edgeStyle=orthogonalEdgeStyle;rounded=0;orthogonalLoop=1;jettySize=auto;html=1;endArrow=ERmany;endFill=0;" parent="n1L1VKnww10ALR_CTc3F-1" source="n1L1VKnww10ALR_CTc3F-10" target="n1L1VKnww10ALR_CTc3F-5" edge="1">
                    <mxGeometry relative="1" as="geometry">
                        <Array as="points">
                            <mxPoint y="613"/>
                            <mxPoint y="227"/>
                        </Array>
                    </mxGeometry>
                </mxCell>
                <mxCell id="n1L1VKnww10ALR_CTc3F-17" value="Asiste" style="edgeLabel;html=1;align=center;verticalAlign=middle;resizable=0;points=[];" parent="n1L1VKnww10ALR_CTc3F-16" vertex="1" connectable="0">
                    <mxGeometry x="-0.0437" y="-1" relative="1" as="geometry">
                        <mxPoint as="offset"/>
                    </mxGeometry>
                </mxCell>
                <mxCell id="n1L1VKnww10ALR_CTc3F-10" value="User" style="swimlane;fontStyle=1;align=center;verticalAlign=top;childLayout=stackLayout;horizontal=1;startSize=26;horizontalStack=0;resizeParent=1;resizeParentMax=0;resizeLast=0;collapsible=1;marginBottom=0;" parent="n1L1VKnww10ALR_CTc3F-1" vertex="1">
                    <mxGeometry x="220" y="570" width="160" height="86" as="geometry"/>
                </mxCell>
                <mxCell id="n1L1VKnww10ALR_CTc3F-11" value="+ field: type" style="text;strokeColor=none;fillColor=none;align=left;verticalAlign=top;spacingLeft=4;spacingRight=4;overflow=hidden;rotatable=0;points=[[0,0.5],[1,0.5]];portConstraint=eastwest;" parent="n1L1VKnww10ALR_CTc3F-10" vertex="1">
                    <mxGeometry y="26" width="160" height="26" as="geometry"/>
                </mxCell>
                <mxCell id="n1L1VKnww10ALR_CTc3F-12" value="" style="line;strokeWidth=1;fillColor=none;align=left;verticalAlign=middle;spacingTop=-1;spacingLeft=3;spacingRight=3;rotatable=0;labelPosition=right;points=[];portConstraint=eastwest;" parent="n1L1VKnww10ALR_CTc3F-10" vertex="1">
                    <mxGeometry y="52" width="160" height="8" as="geometry"/>
                </mxCell>
                <mxCell id="n1L1VKnww10ALR_CTc3F-13" value="+ method(type): type" style="text;strokeColor=none;fillColor=none;align=left;verticalAlign=top;spacingLeft=4;spacingRight=4;overflow=hidden;rotatable=0;points=[[0,0.5],[1,0.5]];portConstraint=eastwest;" parent="n1L1VKnww10ALR_CTc3F-10" vertex="1">
                    <mxGeometry y="60" width="160" height="26" as="geometry"/>
                </mxCell>
            </root>
        </mxGraphModel>
    </diagram>
</mxfile>